{
    "asset" : {
        "generator" : "Khronos glTF Blender I/O v1.8.19",
        "version" : "2.0"
    },
    "scene" : 0,
    "scenes" : [
        {
            "name" : "Scene",
            "nodes" : [
                0
            ]
        }
    ],
    "nodes" : [
        {
            "mesh" : 0,
            "name" : "Icosphere",
            "scale" : [
                1,
                1,
                2.516768217086792
            ]
        }
    ],
    "meshes" : [
        {
            "name" : "Icosphere",
            "primitives" : [
                {
                    "attributes" : {
                        "POSITION" : 0,
                        "NORMAL" : 1
                    },
                    "indices" : 2
                }
            ]
        }
    ],
    "accessors" : [
        {
            "bufferView" : 0,
            "componentType" : 5126,
            "count" : 25546,
            "max" : [
                0.9140682220458984,
                1.9763275384902954,
                1.5619580745697021
            ],
            "min" : [
                -0.9142763018608093,
                -0.9222776293754578,
                -0.9162105321884155
            ],
            "type" : "VEC3"
        },
        {
            "bufferView" : 1,
            "componentType" : 5126,
            "count" : 25546,
            "type" : "VEC3"
        },
        {
            "bufferView" : 2,
            "componentType" : 5123,
            "count" : 25548,
            "type" : "SCALAR"
        }
    ],
    "bufferViews" : [
        {
            "buffer" : 0,
            "byteLength" : 306552,
            "byteOffset" : 0
        },
        {
            "buffer" : 0,
            "byteLength" : 306552,
            "byteOffset" : 306552
        },
        {
            "buffer" : 0,
            "byteLength" : 51096,
            "byteOffset" : 613104
        }
    ],
    "buffers" : [
        {
            "byteLength" : 664200,
            "uri" : "data:application/octet-stream;base64,"
        }
    ]
}
